<?xml version="1.0" encoding="UTF-8"?>
<!-- Generated by Pixelmator Pro 3.6.4 -->
<svg width="30" height="30" viewBox="0 0 30 30" xmlns="http://www.w3.org/2000/svg">
    <path id="Path" fill="#fd5842" stroke="none" d="M 13 3 C 12.73243 2.996368 12.474566 3.100117 12.284068 3.288046 C 12.093571 3.475973 11.98633 3.732407 11.986328 4 L 6 4 C 5.639364 3.9949 5.303919 4.184376 5.122112 4.495872 C 4.940306 4.807369 4.940306 5.192631 5.122112 5.504128 C 5.303919 5.815624 5.639364 6.0051 6 6 L 24 6 C 24.360636 6.0051 24.696081 5.815624 24.877888 5.504128 C 25.059694 5.192631 25.059694 4.807369 24.877888 4.495872 C 24.696081 4.184376 24.360636 3.9949 24 4 L 18.013672 4 C 18.01367 3.732407 17.906429 3.475973 17.715931 3.288046 C 17.525434 3.100117 17.267569 2.996368 17 3 L 13 3 Z M 6 8 L 6 24 C 6 25.105 6.895 26 8 26 L 22 26 C 23.105 26 24 25.105 24 24 L 24 8 L 6 8 Z"/>
</svg>
